<svg width="50" height="50" viewBox="0 -0.031 1.063 1.063" xmlns="http://www.w3.org/2000/svg" class="si-glyph si-glyph-tic-tac-toe"><path d="M0.843 0.564a0.217 0.217 0 1 0 0 0.434 0.217 0.217 0 0 0 0 -0.434m0.003 0.381a0.164 0.164 0 0 1 -0.164 -0.163 0.164 0.164 0 0 1 0.164 -0.163c0.091 0 0.165 0.073 0.165 0.163 0 0.09 -0.074 0.163 -0.165 0.163M0.282 0.005a0.214 0.214 0 1 0 0 0.428A0.214 0.214 0 0 0 0.282 0.005m0 0.376a0.162 0.162 0 0 1 0 -0.324 0.162 0.162 0 0 1 0.162 0.162 0.162 0.162 0 0 1 -0.162 0.162M0.5 0.623 0.444 0.566l-0.16 0.16 -0.16 -0.16 -0.057 0.057 0.16 0.16 -0.16 0.16 0.057 0.057 0.16 -0.16 0.16 0.16 0.057 -0.057 -0.16 -0.16zM1.066 0.058l-0.057 -0.057 -0.161 0.161L0.687 0.001l-0.057 0.057 0.161 0.161 -0.161 0.161 0.057 0.057 0.161 -0.161 0.161 0.161 0.057 -0.057 -0.161 -0.161z" class="si-glyph-fill" fill="#434343" fill-rule="evenodd"/></svg>